ISO-10303-21;
HEADER;
FILE_DESCRIPTION(('LeanFlow Frustration-Minimized Airfoil Camber Profile'), '2;1');
FILE_NAME('generated_airfoil.step', '2026-08-31T00:00:00', ('LeanFlow-v1.0.0-Phase7'), ('SocrateAI'), '', '', '');
FILE_SCHEMA(('CONFIG_CONTROL_DESIGN'));
ENDSEC;
DATA;
#1=GEOMETRIC_REPRESENTATION_CONTEXT(3);
#2=CARTESIAN_POINT('P2',(0.00000000,0.00000000,0.00000000));
#3=CARTESIAN_POINT('P3',(0.03225806,0.00758455,0.00000000));
#4=CARTESIAN_POINT('P4',(0.06451613,0.01453174,0.00000000));
#5=CARTESIAN_POINT('P5',(0.09677419,0.02084157,0.00000000));
#6=CARTESIAN_POINT('P6',(0.12903226,0.02651405,0.00000000));
#7=CARTESIAN_POINT('P7',(0.16129032,0.03154917,0.00000000));
#8=CARTESIAN_POINT('P8',(0.19354839,0.03594693,0.00000000));
#9=CARTESIAN_POINT('P9',(0.22580645,0.03970734,0.00000000));
#10=CARTESIAN_POINT('P10',(0.25806452,0.04283039,0.00000000));
#11=CARTESIAN_POINT('P11',(0.29032258,0.04531608,0.00000000));
#12=CARTESIAN_POINT('P12',(0.32258065,0.04716441,0.00000000));
#13=CARTESIAN_POINT('P13',(0.35483871,0.04837539,0.00000000));
#14=CARTESIAN_POINT('P14',(0.38709677,0.04894901,0.00000000));
#15=CARTESIAN_POINT('P15',(0.41935484,0.04894901,0.00000000));
#16=CARTESIAN_POINT('P16',(0.45161290,0.04863741,0.00000000));
#17=CARTESIAN_POINT('P17',(0.48387097,0.04804255,0.00000000));
#18=CARTESIAN_POINT('P18',(0.51612903,0.04716441,0.00000000));
#19=CARTESIAN_POINT('P19',(0.54838710,0.04600301,0.00000000));
#20=CARTESIAN_POINT('P20',(0.58064516,0.04455833,0.00000000));
#21=CARTESIAN_POINT('P21',(0.61290323,0.04283039,0.00000000));
#22=CARTESIAN_POINT('P22',(0.64516129,0.04081917,0.00000000));
#23=CARTESIAN_POINT('P23',(0.67741935,0.03852468,0.00000000));
#24=CARTESIAN_POINT('P24',(0.70967742,0.03594693,0.00000000));
#25=CARTESIAN_POINT('P25',(0.74193548,0.03308591,0.00000000));
#26=CARTESIAN_POINT('P26',(0.77419355,0.02994161,0.00000000));
#27=CARTESIAN_POINT('P27',(0.80645161,0.02651405,0.00000000));
#28=CARTESIAN_POINT('P28',(0.83870968,0.02280321,0.00000000));
#29=CARTESIAN_POINT('P29',(0.87096774,0.01880911,0.00000000));
#30=CARTESIAN_POINT('P30',(0.90322581,0.01453174,0.00000000));
#31=CARTESIAN_POINT('P31',(0.93548387,0.00997109,0.00000000));
#32=CARTESIAN_POINT('P32',(0.96774194,0.00512718,0.00000000));
#33=CARTESIAN_POINT('P33',(1.00000000,0.00000000,0.00000000));
#34=B_SPLINE_CURVE_WITH_KNOTS('AirfoilCamberLine',3,(#2,#3,#4,#5,#6,#7,#8,#9,#10,#11,#12,#13,#14,#15,#16,#17,#18,#19,#20,#21,#22,#23,#24,#25,#26,#27,#28,#29,#30,#31,#32,#33),.UNSPECIFIED.,.F.,.F.,(1,1,1,1,1,1,1,1,1,1,1,1,1,1,1,1,1,1,1,1,1,1,1,1,1,1,1,1,1,1,1,1,1,1,1,1),(0.000000,0.000000,0.000000,0.000000,0.034483,0.068966,0.103448,0.137931,0.172414,0.206897,0.241379,0.275862,0.310345,0.344828,0.379310,0.413793,0.448276,0.482759,0.517241,0.551724,0.586207,0.620690,0.655172,0.689655,0.724138,0.758621,0.793103,0.827586,0.862069,0.896552,0.931034,0.965517,1.000000,1.000000,1.000000,1.000000),.UNSPECIFIED.);
#35=SHAPE_REPRESENTATION('LeanFlowAirfoil',(#34),#1);
/* LEANFLOW_RUN_SHA256=20d610039e559bb25c4fd2db6badcd3e */
ENDSEC;
END-ISO-10303-21;
